<?xml version="1.0" encoding="UTF-8"?>
<svg width="96" height="96" viewBox="0 0 96 96" fill="none" xmlns="http://www.w3.org/2000/svg">
  <!-- Gold square with powder blue outline -->
  <rect x="16" y="16" width="64" height="64" rx="20" fill="#C09A5B" stroke="#7BB2DD" stroke-width="4"/>
  <!-- Centered brain icon outline in deep blue -->
  <g>
    <path d="M48 36c-6 0-12 4-12 12 0 4 2 8 6 10v2c0 2 2 4 4 4s4-2 4-4v-2c4-2 6-6 6-10 0-8-6-12-12-12zm-8 12c0-4.418 3.582-8 8-8s8 3.582 8 8c0 2.21-1.79 4-4 4h-8c-2.21 0-4-1.79-4-4zm8 14c-1.104 0-2-.896-2-2v-2h4v2c0 1.104-.896 2-2 2zm6-10c-1.104 0-2-.896-2-2v-2h4v2c0 1.104-.896 2-2 2z" fill="#F7FAFC" stroke="#004687" stroke-width="2"/>
    <path d="M44 48c0-2.209 1.791-4 4-4s4 1.791 4 4" fill="none" stroke="#004687" stroke-width="1.5"/>
    <path d="M44 52c0-2.209 1.791-4 4-4s4 1.791 4 4" fill="none" stroke="#004687" stroke-width="1.5"/>
    <path d="M48 44v8" fill="none" stroke="#004687" stroke-width="1.5"/>
  </g>
</svg>
