<?xml version="1.0" encoding="UTF-8"?>
<svg width="480" height="120" viewBox="0 0 480 120" fill="none" xmlns="http://www.w3.org/2000/svg">
  <rect width="480" height="120" rx="24" fill="#F7FAFC" stroke="#004687" stroke-width="4"/>
  <g transform="translate(32,12)">
    <circle cx="48" cy="48" r="44" fill="#7BB2DD" stroke="#004687" stroke-width="4"/>
    <path d="M32 48c0-8 8-16 16-16s16 8 16 16-8 16-16 16-16-8-16-16z" fill="#F7FAFC" stroke="#004687" stroke-width="2"/>
    <path d="M48 32c4 0 8 4 8 8s-4 8-8 8-8-4-8-8 4-8 8-8z" fill="#C09A5B" stroke="#004687" stroke-width="1.5"/>
    <path d="M48 56c-4 0-8 4-8 8s4 8 8 8 8-4 8-8-4-8-8-8z" fill="#C09A5B" stroke="#004687" stroke-width="1.5"/>
    <path d="M40 48c0-4 4-8 8-8s8 4 8 8-4 8-8 8-8-4-8-8z" fill="#7BB2DD" stroke="#004687" stroke-width="1.5"/>
    <path d="M48 48c0-2 2-4 4-4s4 2 4 4-2 4-4 4-4-2-4-4z" fill="#004687"/>
    <path d="M48 48c0-2-2-4-4-4s-4 2-4 4 2 4 4 4 4-2 4-4z" fill="#F7FAFC"/>
    <path d="M48 48c0-1 1-2 2-2s2 1 2 2-1 2-2 2-2-1-2-2z" fill="#C09A5B"/>
    <path d="M48 48c0-1-1-2-2-2s-2 1-2 2 1 2 2 2 2-1 2-2z" fill="#C09A5B"/>
    <path d="M48 48c0-0.5 0.5-1 1-1s1 0.5 1 1-0.5 1-1 1-1-0.5-1-1z" fill="#7BB2DD"/>
    <path d="M48 48c0-0.5-0.5-1-1-1s-1 0.5-1 1 0.5 1 1 1 1-0.5 1-1z" fill="#7BB2DD"/>
  </g>
  <text x="140" y="65" font-family="Segoe UI, Arial, sans-serif" font-size="48" font-weight="bold" fill="#004687" letter-spacing="2">Divergent</text>
  <text x="140" y="100" font-family="Segoe UI, Arial, sans-serif" font-size="32" font-weight="bold" fill="#7BB2DD" letter-spacing="2">Flow</text>
  <rect x="0" y="0" width="480" height="120" rx="24" fill="none" stroke="#C09A5B" stroke-width="2"/>
</svg>
