<?xml version="1.0" encoding="UTF-8"?>
<svg width="96" height="96" viewBox="0 0 96 96" fill="none" xmlns="http://www.w3.org/2000/svg">
  <rect x="16" y="16" width="64" height="64" rx="20" fill="#C09A5B" stroke="#7BB2DD" stroke-width="4"/>
  <!-- Abstract brain with more connections -->
  <!-- Stylized, vertically-flipped brain in deep blue -->
  <!-- Realistic line drawing of a brain in deep blue -->
  <!-- Standard brain icon outline in deep blue -->
  <!-- Classic symmetrical brain outline in deep blue -->
  <!-- SVG path of brain icon, centered -->
  <!-- Standard brain icon outline in deep blue -->
  <!-- Public domain brain icon outline, centered -->
  <g>
    <path d="M56 48c0-4.418-3.582-8-8-8s-8 3.582-8 8c0 2.21 1.79 4 4 4h8c2.21 0 4-1.79 4-4zm-8-6c3.314 0 6 2.686 6 6 0 1.104-.896 2-2 2h-8c-1.104 0-2-.896-2-2 0-3.314 2.686-6 6-6z" fill="#F7FAFC" stroke="#004687" stroke-width="2"/>
    <path d="M44 48c0-2.209 1.791-4 4-4s4 1.791 4 4" fill="none" stroke="#004687" stroke-width="1.5"/>
    <path d="M44 52c0-2.209 1.791-4 4-4s4 1.791 4 4" fill="none" stroke="#004687" stroke-width="1.5"/>
    <path d="M48 44v8" fill="none" stroke="#004687" stroke-width="1.5"/>
  </g>
  </g>
</svg>
